<?xml version="1.0" encoding="utf-8"?>
<svg version="1.1" id="Layer_1" xmlns="http://www.w3.org/2000/svg" xmlns:xlink="http://www.w3.org/1999/xlink" x="0px" y="0px"
	 viewBox="0 0 56.7 56.7" style="enable-background:new 0 0 56.7 56.7;" xml:space="preserve">
<style type="text/css">
	.st0{fill:none;stroke:#181716;stroke-width:3;stroke-miterlimit:10;}
	.st1{fill:#181716;}
</style>
<circle class="st0" cx="28.4" cy="28.4" r="23.9"/>
<path class="st1" d="M28.6,4.1c13.6,0,24.5,11,24.5,24.7c0,13.6-10.9,24.5-24.6,24.6c-13.6,0-24.7-11-24.7-24.5
	C3.7,15,14.7,4.1,28.6,4.1z M23.1,13.9c-0.1-2.9-1.6-4.5-4.3-4.6c-2.7,0-4.3,1.8-4.3,4.4c0,2.4,1.4,4.1,4.1,4.2
	C21.4,17.9,22.8,16.4,23.1,13.9z M41.3,42.1c-0.1-2.9-1.6-4.5-4.2-4.5c-2.7,0-4.3,1.7-4.3,4.4c0,2.4,1.5,4.1,4,4.2
	C39.6,46.2,41,44.6,41.3,42.1z M43.5,29.3c-2.9,0.2-4.4,1.8-4.4,4.4c0.1,2.6,1.9,4.3,4.5,4.2c2.4-0.1,4.1-1.5,4-4.2
	C47.6,30.9,46.1,29.5,43.5,29.3z M43.7,19.2c-2.5,0.3-4.1,1.7-4,4.5c0.1,2.6,1.8,4,4.2,4.1c2.6,0,4.4-1.6,4.4-4.3
	C48.3,20.8,46.6,19.2,43.7,19.2z M28.8,15.4c2.7-0.3,4.3-1.8,4.3-4.5c-0.1-2.4-1.6-4-4.1-4.1c-2.7,0-4.4,1.4-4.4,4.2
	C24.5,13.8,26.2,15.1,28.8,15.4z M38.6,10.5c-3,0.1-4.5,1.7-4.5,4.3c0,2.6,1.8,4.3,4.4,4.2c2.4-0.1,4.1-1.5,4.1-4.2
	C42.7,12.1,41.1,10.7,38.6,10.5z M12.5,17.4C9.7,17.6,8,19.1,8,21.8c0,2.4,1.4,4.1,4,4.2c2.7,0.1,4.4-1.2,4.5-4
	C16.7,19.1,15,17.8,12.5,17.4z M17.5,36.4c-2.8,0.2-4.5,1.7-4.4,4.3c0,2.6,1.7,4.2,4.4,4.1c2.5-0.1,4-1.5,4.1-4.1
	C21.7,38,20,36.6,17.5,36.4z M27.1,40.1c-2.7,0.2-4.3,1.6-4.3,4.3c0,2.5,1.5,4.1,4,4.2c2.7,0.1,4.4-1.3,4.4-4.1
	C31.3,41.7,29.8,40.3,27.1,40.1z M11.7,36.2c2.8-0.1,4.3-1.6,4.3-4.3c0-2.5-1.5-4-4-4.1c-2.7-0.1-4.3,1.4-4.4,4.1
	C7.5,34.6,9.1,36,11.7,36.2z"/>
</svg>
